<?xml version="1.0" encoding="UTF-8"?>
<svg id="Layer_1" data-name="Layer 1" xmlns="http://www.w3.org/2000/svg" viewBox="0 0 1274.49 273.72">
  <defs>
    <style>
      .cls-1 {
        fill: #2a2d7d;
        stroke-width: 0px;
      }
    </style>
  </defs>
  <g>
    <path class="cls-1" d="M273.72,0v109.45c0,90.73-73.55,164.28-164.28,164.28H13.76l69.43-69.41c14.72,11.72,33.38,18.75,53.68,18.75,47.61,0,86.19-38.6,86.19-86.2s-38.58-86.19-86.19-86.19-86.2,38.58-86.2,86.19c0,19.74,6.64,37.92,17.8,52.46L0,257.78v-93.5C0,73.55,73.55,0,164.28,0h109.45Z"/>
    <path class="cls-1" d="M169.44,186.07c-11.18,10.35-23.8,17.71-36.43,21.9l-13.37-56.04-55.41-17.55c5.13-12.45,13.5-24.64,24.84-35.14,32.32-29.92,76.54-34.75,98.74-10.78,22.2,23.99,13.97,67.68-18.36,97.62Z"/>
  </g>
  <g>
    <path class="cls-1" d="M521.45,115.21c0,27.05-19.03,42.6-56.04,42.6h-69.85V.04h65.66c33.67,0,52.49,15.33,52.49,40.79,0,17.13-8.15,29.07-19.66,35.16,16.52,4.96,27.39,18.25,27.39,39.22ZM416.48,18.3v50.48h42.87c21.33,0,33.46-8.56,33.46-25.24s-12.13-25.24-33.46-25.24h-42.87ZM500.33,113.41c0-18.26-12.55-26.37-35.76-26.37h-48.1v52.51h48.1c23.21,0,35.76-7.89,35.76-26.14Z"/>
    <path class="cls-1" d="M679.76.04v157.76h-20.91v-70.32h-84.06v70.32h-20.91V.04h20.91v67.84h84.06V.04h20.91Z"/>
    <path class="cls-1" d="M816.94,118.36h-77.79l-16.1,39.44h-21.54L767.8.04h20.7l66.5,157.76h-21.96l-16.1-39.44ZM809.62,100.33l-31.58-77.31-31.58,77.31h63.15Z"/>
    <path class="cls-1" d="M974.61,157.81l-31.58-48.46c-2.93.23-6.06.45-9.2.45h-36.18v48.01h-20.91V.04h57.09c38.06,0,61.06,20.73,61.06,54.99,0,24.34-11.71,41.92-32.2,49.81l34.71,52.96h-22.79ZM973.99,55.03c0-22.54-14.01-35.38-40.78-35.38h-35.55v70.99h35.55c26.77,0,40.78-13.07,40.78-35.61Z"/>
    <path class="cls-1" d="M1122.04,118.36h-77.79l-16.1,39.44h-21.54L1072.9.04h20.7l66.5,157.76h-21.96l-16.1-39.44ZM1114.72,100.33l-31.58-77.31-31.58,77.31h63.15Z"/>
    <path class="cls-1" d="M1203.6,19.65h-50.19V.04h121.08v19.61h-50.19v138.16h-20.7V19.65Z"/>
  </g>
  <g>
    <path class="cls-1" d="M395.57,230.98c0-24.61,18.73-42.74,44.06-42.74,12.25,0,23.29,4.08,30.74,12.25l-5.64,5.64c-6.84-6.96-15.25-9.97-24.85-9.97-20.29,0-35.54,14.89-35.54,34.82s15.25,34.82,35.54,34.82c9.6,0,18.01-3,24.85-10.08l5.64,5.64c-7.44,8.16-18.49,12.37-30.86,12.37-25.21,0-43.94-18.13-43.94-42.74Z"/>
    <path class="cls-1" d="M534.24,233.86v39.14h-8.16v-9.84c-3.84,6.48-11.29,10.45-21.73,10.45-14.29,0-23.05-7.44-23.05-18.37,0-9.73,6.24-17.89,24.37-17.89h20.05v-3.84c0-10.8-6.12-16.69-17.89-16.69-8.16,0-15.85,2.88-21.01,7.44l-3.84-6.36c6.36-5.4,15.73-8.52,25.69-8.52,16.33,0,25.57,8.16,25.57,24.49ZM525.72,254.04v-10.33h-19.81c-12.25,0-16.21,4.8-16.21,11.29,0,7.32,5.88,11.89,15.97,11.89s16.69-4.56,20.05-12.85Z"/>
    <path class="cls-1" d="M589.23,209.37v8.28c-.72,0-1.44-.12-2.04-.12-13.21,0-21.25,8.4-21.25,23.29v32.18h-8.53v-63.15h8.16v12.37c3.96-8.4,12.01-12.85,23.65-12.85Z"/>
    <path class="cls-1" d="M658.99,244.07h-52.83c.96,13.21,11.05,21.97,24.85,21.97,7.68,0,14.53-2.76,19.33-8.28l4.8,5.52c-5.64,6.72-14.41,10.33-24.37,10.33-19.69,0-33.14-13.45-33.14-32.18s13.09-32.06,30.86-32.06,30.62,13.09,30.62,32.06c0,.72-.12,1.68-.12,2.64ZM606.16,237.71h44.78c-1.08-12.37-10.09-21.01-22.45-21.01s-21.25,8.64-22.33,21.01Z"/>
    <path class="cls-1" d="M731.51,244.07h-52.83c.96,13.21,11.05,21.97,24.85,21.97,7.68,0,14.53-2.76,19.33-8.28l4.8,5.52c-5.64,6.72-14.41,10.33-24.37,10.33-19.69,0-33.14-13.45-33.14-32.18s13.09-32.06,30.86-32.06,30.62,13.09,30.62,32.06c0,.72-.12,1.68-.12,2.64ZM678.68,237.71h44.78c-1.08-12.37-10.09-21.01-22.45-21.01s-21.25,8.64-22.33,21.01Z"/>
    <path class="cls-1" d="M780.86,209.37v8.28c-.72,0-1.44-.12-2.04-.12-13.21,0-21.25,8.4-21.25,23.29v32.18h-8.53v-63.15h8.16v12.37c3.96-8.4,12.01-12.85,23.65-12.85Z"/>
    <path class="cls-1" d="M789.26,241.43c0-18.85,13.69-32.06,32.54-32.06,10.69,0,19.69,4.2,24.73,12.49l-6.36,4.32c-4.32-6.36-11.04-9.36-18.37-9.36-13.81,0-23.89,9.84-23.89,24.61s10.08,24.61,23.89,24.61c7.32,0,14.05-2.88,18.37-9.25l6.36,4.32c-5.04,8.16-14.05,12.49-24.73,12.49-18.85,0-32.54-13.33-32.54-32.18Z"/>
    <path class="cls-1" d="M855.78,241.43c0-18.73,13.69-32.06,32.18-32.06s32.06,13.33,32.06,32.06-13.57,32.18-32.06,32.18-32.18-13.45-32.18-32.18ZM911.37,241.43c0-14.77-9.96-24.61-23.41-24.61s-23.53,9.84-23.53,24.61,10.08,24.61,23.53,24.61,23.41-9.84,23.41-24.61Z"/>
    <path class="cls-1" d="M995.53,236.39v36.62h-8.53v-35.78c0-13.33-6.96-20.17-18.97-20.17-13.57,0-22.09,8.4-22.09,22.81v33.14h-8.53v-63.15h8.16v11.65c4.56-7.68,13.09-12.13,24.01-12.13,15.37,0,25.93,8.88,25.93,27.01Z"/>
    <path class="cls-1" d="M1076.82,236.39v36.62h-8.53v-35.78c0-13.33-6.96-20.17-18.97-20.17-13.57,0-22.09,8.4-22.09,22.81v33.14h-8.53v-63.15h8.16v11.65c4.56-7.68,13.09-12.13,24.01-12.13,15.37,0,25.93,8.88,25.93,27.01Z"/>
    <path class="cls-1" d="M1155.22,244.07h-52.83c.96,13.21,11.05,21.97,24.85,21.97,7.68,0,14.53-2.76,19.33-8.28l4.8,5.52c-5.64,6.72-14.41,10.33-24.37,10.33-19.69,0-33.14-13.45-33.14-32.18s13.09-32.06,30.86-32.06,30.62,13.09,30.62,32.06c0,.72-.12,1.68-.12,2.64ZM1102.39,237.71h44.78c-1.08-12.37-10.09-21.01-22.45-21.01s-21.25,8.64-22.33,21.01Z"/>
    <path class="cls-1" d="M1166.38,241.43c0-18.85,13.69-32.06,32.54-32.06,10.69,0,19.69,4.2,24.73,12.49l-6.36,4.32c-4.32-6.36-11.04-9.36-18.37-9.36-13.81,0-23.89,9.84-23.89,24.61s10.08,24.61,23.89,24.61c7.32,0,14.05-2.88,18.37-9.25l6.36,4.32c-5.04,8.16-14.05,12.49-24.73,12.49-18.85,0-32.54-13.33-32.54-32.18Z"/>
    <path class="cls-1" d="M1274.32,269.16c-3.36,3-8.4,4.44-13.33,4.44-11.89,0-18.49-6.72-18.49-18.37v-38.18h-11.29v-7.2h11.29v-13.81h8.53v13.81h19.21v7.2h-19.21v37.7c0,7.44,3.84,11.53,10.93,11.53,3.48,0,6.96-1.08,9.36-3.24l3,6.12Z"/>
  </g>
  <rect class="cls-1" x="330.18" y=".33" width="8" height="273.27"/>
</svg>